HIERARCHY
ROOT Hips
{
	OFFSET 0.000000 0.000000 0.000000
	CHANNELS 6 Xposition Yposition Zposition Zrotation Yrotation Xrotation 
	JOINT LHipJoint
	{
		OFFSET 0.000000 0.000000 0.000000
		CHANNELS 3 Zrotation Yrotation Xrotation
		JOINT LeftUpLeg
		{
			OFFSET 1.363060 -1.794630 0.839290
			CHANNELS 3 Zrotation Yrotation Xrotation
			JOINT LeftLeg
			{
				OFFSET 2.448110 -6.726130 0.000000
				CHANNELS 3 Zrotation Yrotation Xrotation
				JOINT LeftFoot
				{
					OFFSET 2.562200 -7.039590 0.000000
					CHANNELS 3 Zrotation Yrotation Xrotation
					JOINT LeftToeBase
					{
						OFFSET 0.157640 -0.433110 2.322550
						CHANNELS 3 Zrotation Yrotation Xrotation
						End Site
						{
							OFFSET 0.000000 0.000000 0.000000
						}
					}
				}
			}
		}
	}
	JOINT RHipJoint
	{
		OFFSET 0.000000 0.000000 0.000000
		CHANNELS 3 Zrotation Yrotation Xrotation
		JOINT RightUpLeg
		{
			OFFSET -1.305520 -1.794630 0.839290
			CHANNELS 3 Zrotation Yrotation Xrotation
			JOINT RightLeg
			{
				OFFSET -2.542530 -6.985550 0.000000
				CHANNELS 3 Zrotation Yrotation Xrotation
				JOINT RightFoot
				{
					OFFSET -2.568260 -7.056230 0.000000
					CHANNELS 3 Zrotation Yrotation Xrotation
					JOINT RightToeBase
					{
						OFFSET -0.164730 -0.452590 2.363150
						CHANNELS 3 Zrotation Yrotation Xrotation
						End Site
						{
							OFFSET 0.000000 0.000000 0.000000
						}
					}
				}
			}
		}
	}
	JOINT LowerBack
	{
		OFFSET 0.000000 0.000000 0.000000
		CHANNELS 3 Zrotation Yrotation Xrotation
		JOINT Spine
		{
			OFFSET 0.028270 2.035590 -0.193380
			CHANNELS 3 Zrotation Yrotation Xrotation
			JOINT Spine1
			{
				OFFSET 0.056720 2.048850 -0.042750
				CHANNELS 3 Zrotation Yrotation Xrotation
				JOINT Neck
				{
					OFFSET 0.000000 0.000000 0.000000
					CHANNELS 3 Zrotation Yrotation Xrotation
					JOINT Neck1
					{
						OFFSET -0.054170 1.746240 0.172020
						CHANNELS 3 Zrotation Yrotation Xrotation
						JOINT Head
						{
							OFFSET 0.104070 1.761360 -0.123970
							CHANNELS 3 Zrotation Yrotation Xrotation
							End Site
							{
								OFFSET 0.000000 0.000000 0.000000
							}
						}
					}
				}
				JOINT LeftShoulder
				{
					OFFSET 0.000000 0.000000 0.000000
					CHANNELS 3 Zrotation Yrotation Xrotation
					JOINT LeftArm
					{
						OFFSET 3.362410 1.200890 -0.311210
						CHANNELS 3 Zrotation Yrotation Xrotation
						JOINT LeftForeArm
						{
							OFFSET 4.983000 -0.000000 -0.000000
							CHANNELS 3 Zrotation Yrotation Xrotation
							JOINT LeftHand
							{
								OFFSET 3.483560 -0.000000 -0.000000
								CHANNELS 3 Zrotation Yrotation Xrotation
								JOINT LeftFingerBase
								{
									OFFSET 0.000000 0.000000 0.000000
									CHANNELS 3 Zrotation Yrotation Xrotation
									JOINT LeftHandIndex1
									{
										OFFSET 0.715260 -0.000000 -0.000000
										CHANNELS 3 Zrotation Yrotation Xrotation
										End Site
										{
											OFFSET 0.000000 0.000000 0.000000
										}
									}
								}
								JOINT LThumb
								{
									OFFSET 0.000000 0.000000 0.000000
									CHANNELS 3 Zrotation Yrotation Xrotation
									End Site
									{
										OFFSET 0.000000 0.000000 0.000000
									}
								}
							}
						}
					}
				}
				JOINT RightShoulder
				{
					OFFSET 0.000000 0.000000 0.000000
					CHANNELS 3 Zrotation Yrotation Xrotation
					JOINT RightArm
					{
						OFFSET -3.136600 1.374050 -0.404650
						CHANNELS 3 Zrotation Yrotation Xrotation
						JOINT RightForeArm
						{
							OFFSET -5.241900 -0.000000 -0.000000
							CHANNELS 3 Zrotation Yrotation Xrotation
							JOINT RightHand
							{
								OFFSET -3.444170 -0.000000 -0.000000
								CHANNELS 3 Zrotation Yrotation Xrotation
								JOINT RightFingerBase
								{
									OFFSET 0.000000 0.000000 0.000000
									CHANNELS 3 Zrotation Yrotation Xrotation
									JOINT RightHandIndex1
									{
										OFFSET -0.622530 -0.000000 -0.000000
										CHANNELS 3 Zrotation Yrotation Xrotation
										End Site
										{
											OFFSET 0.000000 0.000000 0.000000
										}
									}
								}
								JOINT RThumb
								{
									OFFSET 0.000000 0.000000 0.000000
									CHANNELS 3 Zrotation Yrotation Xrotation
									End Site
									{
										OFFSET 0.000000 0.000000 0.000000
									}
								}
							}
						}
					}
				}
			}
		}
	}
}
MOTION
Frames: 12
Frame Time: 0.008333
-29.174941 17.468514 -0.279193 166.425365 75.092476 166.690270 0.644172 -3.645203 -1.821060 -22.016037 -5.560417 -1.479395 0.293790 9.866521 23.512342 -1.095002 8.528516 -13.349553 0.013700 0.756800 2.079900 -6.443110 2.747274 -5.516305 19.983442 -2.450586 2.152417 -1.702470 -10.327699 26.429072 -1.143622 -14.983670 -35.052792 -0.988900 -6.329300 17.743100 -1.524918 3.119717 -2.613131 -0.278524 3.632789 -0.587190 -0.155524 2.114939 6.411309 11.108474 18.283066 -2.679074 -2.645028 25.487888 12.542910 -3.519100 12.773400 13.019100 -7.187934 -2.829713 0.303204 -80.389677 -5.199060 27.725173 6.059344 -19.527832 -1.719805 -0.563782 0.250006 -2.821192 22.236284 -11.765055 -4.998300 -7.125000 0.000000 0.000000 -3.072100 16.991700 2.043200 11.391043 1.933261 -0.333385 72.935534 0.463967 27.284569 -8.656520 20.877259 -2.704469 1.377132 0.391790 -5.890899 -12.605992 -28.736686 6.858100 7.125000 0.000000 0.000000 18.879300 -58.528100 -6.391300 
-29.174835 17.471368 -0.278981 166.595175 75.126186 166.905997 0.640404 -3.647369 -1.821153 -21.949915 -5.600263 -1.546366 0.301478 9.883556 23.566498 -1.110930 8.589905 -13.338690 0.012400 0.719100 1.976200 -6.453936 2.742952 -5.507551 20.064686 -2.360003 2.119641 -1.687318 -10.306436 26.344815 -1.108572 -15.146126 -35.003449 -0.999500 -6.362000 17.838600 -1.514665 3.081532 -2.632186 -0.256943 3.573452 -0.604170 -0.103823 2.082594 6.405412 11.015608 18.282207 -2.558360 -2.786692 25.513384 12.417013 -3.592800 12.785000 12.922800 -7.158968 -2.830437 0.502224 -81.481096 -8.586002 17.089922 2.184016 -13.588034 -0.841677 -0.668182 0.475709 7.744376 26.803744 -12.262859 -6.490100 -7.125000 0.000000 0.000000 0.176300 15.825300 -0.121500 11.392494 1.942780 -0.363347 72.876269 0.565559 27.180751 -8.509080 20.685166 -2.639664 1.366328 0.377837 -5.609320 -12.428067 -28.175165 6.642400 7.125000 0.000000 0.000000 18.698900 -57.956800 -6.068400 
-29.174941 17.473377 -0.278664 166.605242 75.157429 166.977282 0.637732 -3.650233 -1.820774 -21.918638 -5.615544 -1.658281 0.313154 9.914316 23.652998 -1.117553 8.613852 -13.328083 0.013200 0.742000 2.039100 -6.458613 2.741305 -5.499719 20.086393 -2.318540 2.078998 -1.673094 -10.277973 26.251135 -1.094639 -15.220640 -34.991375 -0.988900 -6.329400 17.743300 -1.521394 3.068850 -2.662313 -0.255671 3.553840 -0.625629 -0.109732 2.074745 6.367671 11.014896 18.267628 -2.550965 -2.778898 25.511539 12.461602 -3.592700 12.788300 12.947600 -7.165136 -2.832630 0.536875 -81.476381 -9.098797 15.456004 1.439873 -12.406344 -0.712153 -0.795858 0.499280 9.708271 30.581374 -10.201876 -6.371700 -7.125000 0.000000 0.000000 3.080600 17.710300 -2.000400 11.395232 1.950660 -0.377403 72.866506 0.485343 27.220007 -8.544928 20.727391 -2.643561 1.363037 0.377053 -5.626587 -12.364670 -28.051069 6.583200 7.125000 0.000000 0.000000 18.686400 -57.825900 -6.004600 
-29.172932 17.472108 -0.276655 166.812918 75.159375 167.191613 0.635483 -3.651866 -1.818949 -21.832713 -5.576489 -1.733599 0.326418 9.938194 23.735572 -1.108663 8.573715 -13.322186 0.013400 0.748200 2.056300 -6.466464 2.737643 -5.492507 20.195330 -2.226653 2.127555 -1.655907 -10.253864 26.160929 -1.080643 -15.376845 -35.071794 -0.953900 -6.219600 17.422800 -1.471915 3.033402 -2.660093 -0.259444 3.503353 -0.640826 -0.176396 2.054720 6.318237 11.070027 18.285668 -2.518768 -2.749871 25.537393 12.491716 -3.580500 12.806000 12.966800 -7.183077 -2.836418 0.506328 -81.195830 -8.441678 18.877248 1.836989 -13.187390 -0.786451 -0.925047 0.434922 7.766557 33.839808 -7.872483 -5.626600 -7.125000 0.000000 0.000000 5.701200 20.115600 -3.409400 11.390747 1.951805 -0.378995 72.911631 0.365525 27.398506 -8.636763 20.847954 -2.672615 1.364954 0.381015 -5.784166 -12.403689 -28.180430 6.631200 7.125000 0.000000 0.000000 18.727500 -57.955700 -6.077600 
-29.168809 17.470417 -0.273378 167.218404 75.100466 167.532852 0.634648 -3.652157 -1.817905 -21.716919 -5.563982 -1.704885 0.340993 9.955662 23.813294 -1.082110 8.456031 -13.289351 0.013800 0.758800 2.085300 -6.476161 2.732681 -5.490591 20.383497 -2.106536 2.295450 -1.636988 -10.235015 26.080980 -1.073494 -15.571991 -35.243961 -0.950800 -6.209500 17.393600 -1.418720 2.996855 -2.616643 -0.253509 3.449532 -0.641789 -0.201312 2.031811 6.270734 11.123944 18.310878 -2.404693 -2.765338 25.564522 12.448067 -3.594800 12.825700 12.929400 -7.199738 -2.836385 0.444024 -80.876408 -7.025400 24.478764 2.860969 -14.941624 -0.977829 -1.038968 0.321327 4.421057 36.865558 -5.448327 -4.399500 -7.125000 0.000000 0.000000 8.234200 22.830100 -4.438800 11.386484 1.939473 -0.369084 72.949498 0.322981 27.479290 -8.646796 20.864153 -2.677453 1.369356 0.371930 -5.894651 -12.751897 -28.161221 6.797900 7.125000 0.000000 0.000000 18.339000 -57.997800 -5.964500 
-29.168492 17.469254 -0.270735 167.424746 75.083379 167.730313 0.632664 -3.654913 -1.820913 -21.660618 -5.642678 -1.687556 0.349634 9.971015 23.868910 -1.071746 8.410739 -13.280897 0.015300 0.799300 2.196600 -6.485033 2.728809 -5.488862 20.496082 -2.015005 2.366167 -1.623598 -10.219222 26.016588 -1.068716 -15.680055 -35.334708 -0.972500 -6.278100 17.593500 -1.435308 3.000769 -2.618263 -0.241692 3.449232 -0.640851 -0.125503 2.034134 6.230414 11.053241 18.338307 -2.313192 -2.698215 25.588966 12.421321 -3.547500 12.835600 12.867500 -7.232250 -2.825055 0.289701 -80.070081 -3.809607 33.391637 5.633823 -19.127576 -1.567180 -1.036445 0.092658 0.499680 35.926634 -1.251976 -1.004100 -7.125000 0.000000 0.000000 8.037300 28.275500 -3.300800 11.392252 1.915745 -0.345603 72.895820 0.342231 27.518336 -8.608741 20.809015 -2.657145 1.371772 0.349044 -6.064052 -13.369442 -27.731309 6.999400 7.125000 0.000000 0.000000 17.398800 -57.690500 -5.516200 
-29.168915 17.469888 -0.269784 167.506038 75.076088 167.831227 0.631711 -3.655800 -1.820971 -21.631728 -5.692321 -1.709440 0.354342 9.981449 23.901901 -1.064502 8.376991 -13.262002 0.015300 0.797700 2.192300 -6.488260 2.727308 -5.486202 20.532342 -2.013255 2.363817 -1.615454 -10.206208 25.969353 -1.055344 -15.734382 -35.309880 -0.980000 -6.301600 17.662100 -1.436304 2.979663 -2.635506 -0.234531 3.419134 -0.650502 -0.100959 2.017341 6.232801 10.910335 18.341965 -2.379027 -2.540347 25.588486 12.492635 -3.448000 12.829300 12.862800 -7.237587 -2.824821 0.288712 -80.200752 -3.954714 31.764022 5.434178 -18.728581 -1.437048 -0.454453 -0.068975 3.483146 14.946861 -3.303493 -0.879800 -7.125000 0.000000 0.000000 -8.529700 26.642800 3.838900 11.392266 1.924461 -0.352396 72.849950 0.303482 27.735895 -8.643248 20.846027 -2.653142 1.368798 0.339120 -6.334738 -13.653293 -27.373952 7.049700 7.125000 0.000000 0.000000 16.874200 -57.391500 -5.220800 
-29.168069 17.473271 -0.269467 167.726781 75.123966 168.043799 0.627941 -3.655583 -1.817815 -21.549079 -5.687830 -1.714250 0.359316 9.984057 23.925269 -1.056673 8.344111 -13.268756 0.016600 0.832800 2.288800 -6.496145 2.722634 -5.482158 20.608227 -2.035072 2.375281 -1.607626 -10.196621 25.927310 -1.043775 -15.707713 -35.216283 -0.976000 -6.289200 17.625900 -1.347881 2.969168 -2.621989 -0.237369 3.398342 -0.663482 -0.172583 2.009861 6.212931 10.863505 18.334106 -2.471335 -2.444418 25.584122 12.586317 -3.386300 12.823200 12.911200 -7.237870 -2.826295 0.284781 -80.200961 -3.994247 30.802342 5.328722 -18.567483 -1.427277 -0.381238 0.045752 5.190876 14.582583 -7.088994 -1.889200 -7.125000 0.000000 0.000000 -8.643400 22.669100 4.696500 11.383964 1.932209 -0.359749 72.902608 0.257783 27.859544 -8.669815 20.889724 -2.667523 1.371045 0.348987 -6.486347 -13.580238 -27.612862 7.072900 7.125000 0.000000 0.000000 17.097100 -57.610700 -5.383600 
-29.166061 17.475280 -0.270207 167.824810 75.217438 168.130744 0.624221 -3.654753 -1.816145 -21.514054 -5.674356 -1.699834 0.362494 9.987834 23.943897 -1.061452 8.380461 -13.362234 0.018200 0.871900 2.396300 -6.502291 2.721202 -5.484455 20.626541 -2.106915 2.372596 -1.602564 -10.184200 25.886836 -1.045627 -15.580508 -35.096608 -0.965600 -6.256600 17.530800 -1.291387 2.978501 -2.629037 -0.244742 3.409270 -0.659710 -0.239253 2.016199 6.239272 10.909572 18.331747 -2.546864 -2.466688 25.594939 12.632333 -3.392200 12.824600 12.973900 -7.236823 -2.825567 0.283945 -80.138738 -4.013874 30.930615 5.367909 -18.617940 -1.438302 -0.373894 0.077329 4.879400 14.860768 -8.152628 -2.221200 -7.125000 0.000000 0.000000 -8.405300 21.535900 4.783700 11.381767 1.932284 -0.356344 72.974818 0.341275 27.742089 -8.631260 20.851533 -2.672085 1.376105 0.358030 -6.400559 -13.452257 -27.998929 7.104100 7.125000 0.000000 0.000000 17.474700 -57.962400 -5.656700 
-29.165004 17.476443 -0.269890 167.998291 75.305993 168.312297 0.619691 -3.655758 -1.816550 -21.455120 -5.679110 -1.704684 0.367166 9.994684 23.973923 -1.069896 8.436374 -13.482460 0.016600 0.832800 2.288900 -6.513647 2.718044 -5.481019 20.712513 -2.041055 2.379903 -1.593079 -10.171178 25.833551 -1.053397 -15.543998 -35.114089 -0.989800 -6.332200 17.751300 -1.248048 2.981417 -2.654482 -0.243107 3.408743 -0.658666 -0.266254 2.016234 6.254853 10.969371 18.334129 -2.560583 -2.510482 25.616152 12.660443 -3.415600 12.835400 13.021000 -7.232897 -2.824643 0.282103 -80.102362 -3.956066 31.605797 5.448096 -18.734677 -1.450219 -0.409932 0.088627 3.341695 15.974568 -8.348199 -2.459400 -7.125000 0.000000 0.000000 -7.570400 21.263200 4.347000 11.383895 1.929374 -0.352669 73.000944 0.396572 27.684172 -8.620207 20.843213 -2.681660 1.381038 0.365048 -6.292079 -13.397903 -28.321857 7.155300 7.125000 0.000000 0.000000 17.740900 -58.266600 -5.877300 
-29.164369 17.476760 -0.268938 168.268613 75.334333 168.560608 0.616070 -3.657177 -1.816133 -21.376350 -5.708818 -1.694395 0.374948 10.005122 24.020131 -1.069649 8.445378 -13.544126 0.015300 0.799000 2.195800 -6.524013 2.713085 -5.476638 20.830003 -1.972243 2.434411 -1.580407 -10.155704 25.769597 -1.052078 -15.588752 -35.161470 -1.014600 -6.408600 17.974800 -1.192273 2.970231 -2.637030 -0.236006 3.385799 -0.664121 -0.280528 2.007809 6.219040 11.015845 18.324660 -2.473883 -2.586069 25.621016 12.641943 -3.464300 12.843900 13.016100 -7.232913 -2.825351 0.273544 -80.041043 -3.572484 34.225654 5.650376 -19.038364 -1.472994 -0.558901 0.151101 -0.374839 21.163863 -9.397603 -3.772300 -7.125000 0.000000 0.000000 -3.740000 19.751300 2.260900 11.384551 1.922088 -0.352459 72.997593 0.366384 27.747359 -8.627450 20.856382 -2.686831 1.382758 0.368089 -6.281066 -13.401984 -28.426150 7.182800 7.125000 0.000000 0.000000 17.805000 -58.369600 -5.943800 
-29.163735 17.475491 -0.269467 168.449221 75.339414 168.709484 0.614285 -3.657511 -1.813804 -21.324210 -5.691911 -1.700599 0.383380 10.017240 24.067292 -1.068247 8.437774 -13.542311 0.017500 0.853900 2.346800 -6.526909 2.710611 -5.477108 20.876411 -2.042040 2.485132 -1.570153 -10.135938 25.705782 -1.059156 -15.520484 -35.139013 -1.015800 -6.412300 17.985600 -1.134607 2.965851 -2.599530 -0.238655 3.375698 -0.671107 -0.330086 2.006162 6.178843 11.048642 18.315524 -2.428047 -2.590552 25.617764 12.661213 -3.474400 12.848900 13.022800 -7.240007 -2.829220 0.272417 -79.961413 -3.465481 34.783695 5.653341 -19.042957 -1.466460 -0.582450 0.162039 -1.063243 21.939895 -9.765964 -4.081600 -7.125000 0.000000 0.000000 -3.181700 19.278400 1.955800 11.381466 1.922881 -0.357340 73.022385 0.312444 27.793847 -8.646884 20.874645 -2.672427 1.373564 0.358419 -6.273884 -13.203886 -27.971793 6.975300 7.125000 0.000000 0.000000 17.723400 -57.889200 -5.709000 
